<?xml version="1.0" encoding="UTF-8"?>
<svg id="Layer_1" data-name="Layer 1" xmlns="http://www.w3.org/2000/svg" viewBox="0 0 231 227">
  <defs>
    <style>
      .cls-1 {
        fill: #fbb812;
      }

      .cls-2 {
        fill: #ff73c2;
      }
    </style>
  </defs>
  <g>
    <path class="cls-1" d="m11.69,121.25c-7.41-7.41-7.41-19.46,0-26.87,3.59-3.59,8.36-5.56,13.44-5.56s9.85,1.98,13.44,5.56l101.82,101.82-26.87,26.87L11.69,121.25Z"/>
    <path class="cls-2" d="m25.12,89.32c4.94,0,9.59,1.92,13.08,5.42l101.47,101.47-26.16,26.16L12.04,120.9c-7.21-7.21-7.21-18.95,0-26.16,3.49-3.49,8.14-5.42,13.08-5.42m0-1c-4.99,0-9.98,1.9-13.79,5.71h0c-7.62,7.62-7.62,19.96,0,27.58l102.18,102.18,27.58-27.58L38.91,94.03c-3.81-3.81-8.8-5.71-13.79-5.71h0Z"/>
  </g>
  <g>
    <path class="cls-1" d="m87.26,197.21l101.82-101.82c3.59-3.59,8.36-5.56,13.44-5.56s9.85,1.98,13.44,5.56c7.41,7.41,7.41,19.46,0,26.87l-101.82,101.82-26.87-26.87Z"/>
    <path class="cls-2" d="m202.52,90.32c4.94,0,9.59,1.92,13.08,5.42,7.21,7.21,7.21,18.95,0,26.16l-101.47,101.47-26.16-26.16,101.47-101.47c3.49-3.49,8.14-5.42,13.08-5.42m0-1c-4.99,0-9.98,1.9-13.79,5.71l-102.18,102.18,27.58,27.58,102.18-102.18c7.62-7.62,7.62-19.96,0-27.58h0c-3.81-3.81-8.8-5.71-13.79-5.71h0Z"/>
  </g>
  <g>
    <path class="cls-1" d="m11.69,37.77c-3.59-3.59-5.56-8.36-5.56-13.44s1.98-9.85,5.56-13.44c3.59-3.59,8.36-5.56,13.44-5.56s9.85,1.98,13.44,5.56l101.82,101.82-26.87,26.87L11.69,37.77Z"/>
    <path class="cls-2" d="m25.12,5.83c4.94,0,9.59,1.92,13.08,5.42l101.47,101.47-26.16,26.16L12.04,37.42c-7.21-7.21-7.21-18.95,0-26.16,3.49-3.49,8.14-5.42,13.08-5.42m0-1c-4.99,0-9.98,1.9-13.79,5.71h0c-7.62,7.62-7.62,19.96,0,27.58l102.18,102.18,27.58-27.58L38.91,10.55c-3.81-3.81-8.8-5.71-13.79-5.71h0Z"/>
  </g>
  <g>
    <path class="cls-1" d="m87.26,113.72L189.08,11.9c3.59-3.59,8.36-5.56,13.44-5.56s9.85,1.98,13.44,5.56c3.59,3.59,5.56,8.36,5.56,13.44s-1.98,9.85-5.56,13.44l-101.82,101.82-26.87-26.87Z"/>
    <path class="cls-2" d="m202.52,6.83c4.94,0,9.59,1.92,13.08,5.42,7.21,7.21,7.21,18.95,0,26.16l-101.47,101.47-26.16-26.16L189.44,12.25c3.49-3.49,8.14-5.42,13.08-5.42m0-1c-4.99,0-9.98,1.9-13.79,5.71l-102.18,102.18,27.58,27.58,102.18-102.18c7.62-7.62,7.62-19.96,0-27.58h0c-3.81-3.81-8.8-5.71-13.79-5.71h0Z"/>
  </g>
</svg>